<svg xmlns="http://www.w3.org/2000/svg" version="1.1" xmlns:xlink="http://www.w3.org/1999/xlink" width="512" height="512" x="0" y="0" viewBox="0 0 682.667 682.667" style="enable-background:new 0 0 512 512" xml:space="preserve" class=""><g><defs><clipPath id="a" clipPathUnits="userSpaceOnUse"><path d="M0 512h512V0H0Z" fill="#000000" opacity="1" data-original="#000000"></path></clipPath></defs><path d="m0 0-51.116-88.538 26.953-5.087h46.074v84.22z" style="fill-opacity:1;fill-rule:nonzero;stroke:none" transform="matrix(1.33333 0 0 -1.33333 434.993 179.105)" fill="#596c76" data-original="#596c76"></path><g clip-path="url(#a)" transform="matrix(1.33333 0 0 -1.33333 0 682.667)"><path d="M0 0c0-27.449-22.251-49.7-49.7-49.7S-99.4-27.449-99.4 0c0 27.448 22.251 49.7 49.7 49.7S0 27.448 0 0" style="fill-opacity:1;fill-rule:nonzero;stroke:none" transform="translate(305.7 454.8)" fill="#ffdcd5" data-original="#ffdcd5"></path><path d="M0 0c12.042 16.612 31.604 27.417 53.689 27.417h33.133c36.598 0 66.267-29.669 66.267-66.267v-41.417a8.283 8.283 0 0 0-8.283-8.283h-93.68z" style="fill-opacity:1;fill-rule:nonzero;stroke:none" transform="translate(185.744 377.684)" fill="#26a6fe" data-original="#26a6fe"></path><path d="M0 0c-3.96 0-7.807-.477-11.5-1.352C10.401-6.543 26.7-26.211 26.7-49.7c0-23.488-16.299-43.157-38.2-48.348A49.811 49.811 0 0 1 0-99.4c27.449 0 49.7 22.252 49.7 49.7C49.7-22.251 27.449 0 0 0" style="fill-opacity:1;fill-rule:nonzero;stroke:none" transform="translate(256 504.5)" fill="#ffc4bd" data-original="#ffc4bd" class=""></path><path d="M0 0h-23.12c36.598 0 66.267-29.668 66.267-66.267v-41.417a8.284 8.284 0 0 0-8.284-8.283h23.12a8.284 8.284 0 0 1 8.284 8.283v41.417C66.267-29.668 36.598 0 0 0" style="fill-opacity:1;fill-rule:nonzero;stroke:none" transform="translate(272.566 405.1)" fill="#0593fc" data-original="#0593fc"></path><path d="M0 0c23.771-13.724 31.916-44.12 18.191-67.891C4.467-91.663-25.929-99.807-49.7-86.083c-23.771 13.725-31.916 44.121-18.192 67.892C-54.167 5.58-23.771 13.725 0 0" style="fill-opacity:1;fill-rule:nonzero;stroke:none" transform="translate(108.684 398.441)" fill="#d88a55" data-original="#d88a55"></path><path d="M0 0c-8.366 18.734-7.941 41.078 3.102 60.205l16.566 28.693c18.299 31.695 58.827 42.555 90.522 24.256l35.868-20.709a8.283 8.283 0 0 0 3.032-11.315L102.25.001Z" style="fill-opacity:1;fill-rule:nonzero;stroke:none" transform="translate(115.49 255.999)" fill="#97d729" data-original="#97d729" class=""></path><path d="M0 0c-1.98-3.43-3.49-7-4.579-10.635C10.867 5.736 36.05 10.017 56.392-1.727c20.341-11.744 29.225-35.694 22.77-57.256a49.769 49.769 0 0 1 6.921 9.283c13.724 23.771 5.58 54.167-18.191 67.892C44.121 31.916 13.725 23.771 0 0" style="fill-opacity:1;fill-rule:nonzero;stroke:none" transform="translate(40.792 380.25)" fill="#c57a44" data-original="#c57a44" class=""></path><path d="m0 0-11.56-20.022C6.739 11.672 47.267 22.532 78.962 4.233l35.868-20.709a8.283 8.283 0 0 0 3.032-11.315l11.56 20.023a8.283 8.283 0 0 1-3.032 11.315L90.522 24.255C58.827 42.555 18.299 31.695 0 0" style="fill-opacity:1;fill-rule:nonzero;stroke:none" transform="translate(135.159 344.897)" fill="#8bc727" data-original="#8bc727"></path><path d="M0 0c23.771 13.724 54.167 5.58 67.892-18.191C81.616-41.963 73.471-72.359 49.7-86.083c-23.771-13.725-54.167-5.58-67.891 18.191C-31.916-44.121-23.771-13.725 0 0" style="fill-opacity:1;fill-rule:nonzero;stroke:none" transform="translate(58.984 199.642)" fill="#ffdcd5" data-original="#ffdcd5"></path><path d="M0 0c-20.407 2.123-39.545 13.662-50.588 32.789l-16.566 28.693c-18.299 31.695-7.44 72.224 24.255 90.522l35.868 20.709a8.282 8.282 0 0 0 11.315-3.032l46.84-81.129z" style="fill-opacity:1;fill-rule:nonzero;stroke:none" transform="translate(185.747 134.314)" fill="#fe93bb" data-original="#fe93bb"></path><path d="M0 0a49.736 49.736 0 0 1 6.921-9.283C.466 12.279 9.35 36.229 29.691 47.973c20.342 11.744 45.525 7.463 60.971-8.909A49.764 49.764 0 0 1 86.083 49.7C72.359 73.471 41.962 81.616 18.191 67.892-5.58 54.167-13.724 23.771 0 0" style="fill-opacity:1;fill-rule:nonzero;stroke:none" transform="translate(40.792 131.75)" fill="#ffc4bd" data-original="#ffc4bd" class=""></path><path d="m0 0 11.56-20.022C-6.739 11.672 4.121 52.201 35.815 70.5l35.868 20.708a8.285 8.285 0 0 0 11.316-3.032l-11.561 20.023a8.282 8.282 0 0 1-11.315 3.031L24.255 90.522C-7.439 72.223-18.299 31.695 0 0" style="fill-opacity:1;fill-rule:nonzero;stroke:none" transform="translate(118.592 195.797)" fill="#fe5694" data-original="#fe5694" class=""></path><path d="M0 0c0 27.449 22.251 49.7 49.7 49.7S99.4 27.449 99.4 0 77.149-49.7 49.7-49.7 0-27.449 0 0" style="fill-opacity:1;fill-rule:nonzero;stroke:none" transform="translate(206.3 57.2)" fill="#d88a55" data-original="#d88a55"></path><path d="M0 0c-12.041-16.612-31.604-27.417-53.689-27.417h-33.133c-36.598 0-66.267 29.669-66.267 66.267v41.417a8.283 8.283 0 0 0 8.283 8.283h93.68z" style="fill-opacity:1;fill-rule:nonzero;stroke:none" transform="translate(326.256 134.316)" fill="#fee45a" data-original="#fee45a" class=""></path><path d="M0 0c3.96 0 7.807.477 11.5 1.352C-10.401 6.543-26.7 26.211-26.7 49.7c0 23.488 16.299 43.157 38.2 48.348A49.811 49.811 0 0 1 0 99.4c-27.449 0-49.7-22.252-49.7-49.7C-49.7 22.251-27.449 0 0 0" style="fill-opacity:1;fill-rule:nonzero;stroke:none" transform="translate(256 7.5)" fill="#c57a44" data-original="#c57a44" class=""></path><path d="M0 0h23.12c-36.598 0-66.267 29.668-66.267 66.267v41.417a8.284 8.284 0 0 0 8.284 8.283h-23.12a8.284 8.284 0 0 1-8.284-8.283V66.267C-66.267 29.668-36.598 0 0 0" style="fill-opacity:1;fill-rule:nonzero;stroke:none" transform="translate(239.434 106.9)" fill="#fac600" data-original="#fac600" class=""></path><path d="M0 0c-23.771 13.725-31.916 44.121-18.191 67.892C-4.467 91.663 25.929 99.808 49.7 86.083c23.771-13.724 31.916-44.12 18.192-67.891C54.167-5.58 23.771-13.724 0 0" style="fill-opacity:1;fill-rule:nonzero;stroke:none" transform="translate(403.316 113.558)" fill="#ffdcd5" data-original="#ffdcd5"></path><path d="M0 0c8.365-18.734 7.941-41.078-3.102-60.205l-16.566-28.693c-18.299-31.695-58.827-42.555-90.522-24.256l-35.868 20.709a8.283 8.283 0 0 0-3.032 11.315l46.84 81.129z" style="fill-opacity:1;fill-rule:nonzero;stroke:none" transform="translate(396.51 256.002)" fill="#e30256" data-original="#e30256"></path><path d="M0 0c1.98 3.43 3.49 7 4.579 10.635C-10.867-5.736-36.05-10.017-56.392 1.727c-20.341 11.744-29.225 35.694-22.77 57.256a49.769 49.769 0 0 1-6.921-9.283c-13.725-23.771-5.58-54.167 18.191-67.892C-44.121-31.916-13.725-23.771 0 0" style="fill-opacity:1;fill-rule:nonzero;stroke:none" transform="translate(471.207 131.75)" fill="#ffc4bd" data-original="#ffc4bd" class=""></path><path d="m0 0 11.56 20.022C-6.739-11.672-47.267-22.532-78.962-4.233l-35.868 20.709a8.283 8.283 0 0 0-3.032 11.315l-11.56-20.023a8.283 8.283 0 0 1 3.032-11.315l35.868-20.708C-58.827-42.555-18.299-31.695 0 0" style="fill-opacity:1;fill-rule:nonzero;stroke:none" transform="translate(376.841 167.103)" fill="#b30059" data-original="#b30059" class=""></path><path d="M0 0c-23.771-13.724-54.167-5.58-67.892 18.191-13.724 23.772-5.579 54.168 18.192 67.892 23.771 13.725 54.167 5.58 67.891-18.191C31.916 44.121 23.771 13.725 0 0" style="fill-opacity:1;fill-rule:nonzero;stroke:none" transform="translate(453.016 312.358)" fill="#d88a55" data-original="#d88a55"></path><path d="m0 0-16.566 28.694C-27.609 47.821-46.748 59.36-67.154 61.482l-.009-.014c7.911-10.915 12.589-24.327 12.589-38.838v-41.417a8.284 8.284 0 0 0-8.284-8.283h-55.42l46.84-81.129a8.282 8.282 0 0 1 11.315-3.031l35.868 20.708C7.439-72.223 18.299-31.695 0 0" style="fill-opacity:1;fill-rule:nonzero;stroke:none" transform="translate(393.408 316.203)" fill="#596c76" data-original="#596c76"></path><path d="M0 0a49.78 49.78 0 0 1-6.921 9.283c6.455-21.562-2.429-45.512-22.77-57.256-20.342-11.744-45.525-7.463-60.971 8.909A49.764 49.764 0 0 1-86.083-49.7c13.724-23.771 44.121-31.916 67.892-18.192C5.58-54.167 13.724-23.771 0 0" style="fill-opacity:1;fill-rule:nonzero;stroke:none" transform="translate(471.207 380.25)" fill="#c57a44" data-original="#c57a44" class=""></path><path d="m0 0-11.56 20.022C6.739-11.672-4.121-52.201-35.815-70.5l-35.868-20.708a8.284 8.284 0 0 0-11.316 3.032l11.561-20.023a8.282 8.282 0 0 1 11.315-3.031l35.868 20.708C7.439-72.223 18.299-31.695 0 0" style="fill-opacity:1;fill-rule:nonzero;stroke:none" transform="translate(393.408 316.203)" fill="#465a61" data-original="#465a61" class=""></path><path d="M0 0a49.523 49.523 0 0 0 20.527 4.423c27.449 0 49.7-22.251 49.7-49.699 0-27.449-22.251-49.701-49.7-49.701s-49.7 22.252-49.7 49.701A49.522 49.522 0 0 0-24.75-24.75" style="stroke-width:15;stroke-linecap:round;stroke-linejoin:round;stroke-miterlimit:10;stroke-dasharray:none;stroke-opacity:1" transform="translate(235.473 500.077)" fill="none" stroke="#000000" stroke-width="15" stroke-linecap="round" stroke-linejoin="round" stroke-miterlimit="10" stroke-dasharray="none" stroke-opacity="" data-original="#000000"></path><path d="M0 0c12.042 16.612 31.604 27.417 53.689 27.417h33.133c36.598 0 66.267-29.669 66.267-66.267v-41.417a8.283 8.283 0 0 0-8.283-8.283h-93.68" style="stroke-width:15;stroke-linecap:round;stroke-linejoin:round;stroke-miterlimit:10;stroke-dasharray:none;stroke-opacity:1" transform="translate(185.744 377.684)" fill="none" stroke="#000000" stroke-width="15" stroke-linecap="round" stroke-linejoin="round" stroke-miterlimit="10" stroke-dasharray="none" stroke-opacity="" data-original="#000000"></path><path d="M0 0c23.771-13.724 31.916-44.12 18.191-67.891C4.467-91.663-25.929-99.807-49.7-86.083c-23.771 13.725-31.916 44.121-18.192 67.892C-54.167 5.58-23.771 13.725 0 0Z" style="stroke-width:15;stroke-linecap:round;stroke-linejoin:round;stroke-miterlimit:10;stroke-dasharray:none;stroke-opacity:1" transform="translate(108.684 398.441)" fill="none" stroke="#000000" stroke-width="15" stroke-linecap="round" stroke-linejoin="round" stroke-miterlimit="10" stroke-dasharray="none" stroke-opacity="" data-original="#000000"></path><path d="m0 0 46.839 81.129a8.282 8.282 0 0 1-3.031 11.315L7.939 113.152c-31.694 18.299-72.222 7.44-90.522-24.255l-16.566-28.694C-110.193 41.075-110.601 18.735-102.233 0" style="stroke-width:15;stroke-linecap:round;stroke-linejoin:round;stroke-miterlimit:10;stroke-dasharray:none;stroke-opacity:1" transform="translate(217.741 256)" fill="none" stroke="#000000" stroke-width="15" stroke-linecap="round" stroke-linejoin="round" stroke-miterlimit="10" stroke-dasharray="none" stroke-opacity="" data-original="#000000"></path><path d="M0 0c-23.771-13.724-54.167-5.58-67.892 18.191-13.724 23.772-5.579 54.168 18.192 67.892 23.771 13.725 54.167 5.58 67.891-18.191C31.916 44.121 23.771 13.725 0 0Z" style="stroke-width:15;stroke-linecap:round;stroke-linejoin:round;stroke-miterlimit:10;stroke-dasharray:none;stroke-opacity:1" transform="translate(453.016 312.358)" fill="none" stroke="#000000" stroke-width="15" stroke-linecap="round" stroke-linejoin="round" stroke-miterlimit="10" stroke-dasharray="none" stroke-opacity="" data-original="#000000"></path><path d="m0 0 46.84-81.129a8.283 8.283 0 0 1 11.315-3.032l35.868 20.709c31.695 18.299 42.555 58.827 24.255 90.522l-16.566 28.694C90.668 74.892 71.525 86.416 51.117 88.536" style="stroke-width:15;stroke-linecap:round;stroke-linejoin:round;stroke-miterlimit:10;stroke-dasharray:none;stroke-opacity:1" transform="translate(275.13 289.133)" fill="none" stroke="#000000" stroke-width="15" stroke-linecap="round" stroke-linejoin="round" stroke-miterlimit="10" stroke-dasharray="none" stroke-opacity="" data-original="#000000"></path><path d="M0 0c0 27.449 22.251 49.7 49.7 49.7S99.4 27.449 99.4 0 77.149-49.7 49.7-49.7 0-27.449 0 0Z" style="stroke-width:15;stroke-linecap:round;stroke-linejoin:round;stroke-miterlimit:10;stroke-dasharray:none;stroke-opacity:1" transform="translate(206.3 57.2)" fill="none" stroke="#000000" stroke-width="15" stroke-linecap="round" stroke-linejoin="round" stroke-miterlimit="10" stroke-dasharray="none" stroke-opacity="" data-original="#000000"></path><path d="M0 0a66.785 66.785 0 0 1 7.327 8.5" style="stroke-width:15;stroke-linecap:round;stroke-linejoin:round;stroke-miterlimit:10;stroke-dasharray:none;stroke-opacity:1" transform="translate(318.919 125.83)" fill="none" stroke="#000000" stroke-width="15" stroke-linecap="round" stroke-linejoin="round" stroke-miterlimit="10" stroke-dasharray="none" stroke-opacity="" data-original="#000000"></path><path d="M0 0h-93.679a8.283 8.283 0 0 1-8.283-8.284V-49.7c0-36.598 29.668-66.267 66.266-66.267h33.133c4.892 0 9.659.53 14.248 1.537" style="stroke-width:15;stroke-linecap:round;stroke-linejoin:round;stroke-miterlimit:10;stroke-dasharray:none;stroke-opacity:1" transform="translate(275.13 222.867)" fill="none" stroke="#000000" stroke-width="15" stroke-linecap="round" stroke-linejoin="round" stroke-miterlimit="10" stroke-dasharray="none" stroke-opacity="" data-original="#000000"></path><path d="M0 0c-23.771 13.724-31.916 44.121-18.191 67.892C-4.467 91.663 25.929 99.807 49.7 86.083c23.771-13.724 31.916-44.12 18.192-67.892C54.167-5.58 23.771-13.724 0 0Z" style="stroke-width:15;stroke-linecap:round;stroke-linejoin:round;stroke-miterlimit:10;stroke-dasharray:none;stroke-opacity:1" transform="translate(403.316 113.559)" fill="none" stroke="#000000" stroke-width="15" stroke-linecap="round" stroke-linejoin="round" stroke-miterlimit="10" stroke-dasharray="none" stroke-opacity="" data-original="#000000"></path><path d="m0 0-46.839-81.128a8.283 8.283 0 0 1 3.031-11.316l35.869-20.708c31.694-18.299 72.223-7.44 90.522 24.255l16.566 28.694C110.193-41.074 110.601-18.735 102.233 0" style="stroke-width:15;stroke-linecap:round;stroke-linejoin:round;stroke-miterlimit:10;stroke-dasharray:none;stroke-opacity:1" transform="translate(294.259 256)" fill="none" stroke="#000000" stroke-width="15" stroke-linecap="round" stroke-linejoin="round" stroke-miterlimit="10" stroke-dasharray="none" stroke-opacity="" data-original="#000000"></path><path d="M0 0c23.771 13.725 54.167 5.58 67.892-18.191C81.616-41.962 73.471-72.358 49.7-86.083c-23.771-13.724-54.167-5.58-67.891 18.192C-31.916-44.12-23.771-13.724 0 0Z" style="stroke-width:15;stroke-linecap:round;stroke-linejoin:round;stroke-miterlimit:10;stroke-dasharray:none;stroke-opacity:1" transform="translate(58.984 199.642)" fill="none" stroke="#000000" stroke-width="15" stroke-linecap="round" stroke-linejoin="round" stroke-miterlimit="10" stroke-dasharray="none" stroke-opacity="" data-original="#000000"></path><path d="m0 0-46.84 81.129a8.284 8.284 0 0 1-11.315 3.032l-35.868-20.709c-31.695-18.299-42.554-58.827-24.255-90.522l16.566-28.694c11.044-19.129 30.187-30.652 50.595-32.773" style="stroke-width:15;stroke-linecap:round;stroke-linejoin:round;stroke-miterlimit:10;stroke-dasharray:none;stroke-opacity:1" transform="translate(236.87 222.867)" fill="none" stroke="#000000" stroke-width="15" stroke-linecap="round" stroke-linejoin="round" stroke-miterlimit="10" stroke-dasharray="none" stroke-opacity="" data-original="#000000"></path></g></g></svg>