<svg xmlns="http://www.w3.org/2000/svg" version="1.1" xmlns:xlink="http://www.w3.org/1999/xlink" width="512" height="512" x="0" y="0" viewBox="0 0 481 481.787" style="enable-background:new 0 0 512 512" xml:space="preserve"><g><path d="M264.047 165.387c-48-52.801-128.8-56-180.8-8.801-2.4 2.402-5.599 4.8-8 8l-3.2 5.601 4 4.801.8.797c47.2 52 128 55.203 180 8 2.4-2.398 5.598-4.797 8-8l4-5.597zm-110.399 4.8c0-8.8 7.2-16 16-16 8.797 0 16 7.2 16 16s-7.203 16-16 16c-8.8 0-16-7.199-16-16zm5.598-30.402c-16.8 5.602-25.598 23.203-20.8 40 3.202 9.602 10.402 17.602 20.8 20.8-24.8-2.398-48.8-12.8-67.2-30.398 19.2-17.601 42.4-28 67.2-30.402zm20.8 60.8c16.802-5.597 25.602-23.198 20.802-40-3.2-9.597-10.403-17.597-20.801-20.8 24.8 2.403 48.8 12.8 67.2 30.403-19.2 17.597-42.4 28-67.2 30.398zm0 0" fill="#ffc700" opacity="1" data-original="#000000"></path><path d="M169.648 34.188c-75.203 0-136 60.8-136 136s60.797 136 136 136c75.2 0 136-60.801 136-136s-60.8-136-136-136zm0 256c-66.402 0-120-53.602-120-120 0-66.403 53.598-120 120-120 66.399 0 120 53.597 120 120 0 66.398-53.601 120-120 120zM441.648 346.188v-264c0-22.403-17.601-40-40-40h-88v16h88c13.598 0 24 10.398 24 24v264zM41.648 322.188v80c0 22.398 17.598 40 40 40h280v-16h-280c-13.601 0-24-10.403-24-24v-80zm0 0" fill="#ffc700" opacity="1" data-original="#000000"></path><path d="M337.648 82.188h72v16h-72zM353.648 122.188h56v16h-56zM353.648 162.188h56v16h-56zM353.648 202.188h56v16h-56zM353.648 242.188h56v16h-56zM361.648 282.188h48v16h-48zM73.648 354.188h216v16h-216zM73.648 386.188h248v16h-248zM113.648 234.188h112v16h-112zM113.648 90.188h112v16h-112zm0 0" fill="#ffc700" opacity="1" data-original="#000000"></path><path d="M388.047 337.387c-4.8-4.801-10.399-7.2-16.8-7.2h-5.599l-57.601-64.8c52.8-76.801 34.398-181.602-42.399-235.2-76.8-53.601-182.402-33.601-235.203 42.399-52.797 76-34.398 181.601 42.403 235.2 60.8 42.401 142.398 40 200.8-6.4l56 63.2v6.402c0 6.399 2.399 12.797 7.2 16.797l83.199 83.203c14.398 14.399 36.8 14.399 51.2 0 14.401-14.402 14.401-36.8 0-51.203zm-370.399-167.2c0-84 68-152 152-152s152 68 152 152-68 152-152 152-152-68-152-152zm268 121.598c4-4 8.797-8.797 12-12.797l52.797 59.2-12.797 12zm160 174.403c-5.601 0-10.402-2.403-14.402-5.602l-83.2-83.2c-1.6-1.6-2.398-3.199-2.398-5.6v-6.4l19.2-19.199h6.398c2.402 0 4 .801 5.602 2.399l83.199 83.2c8 8 8 20.8 0 28.8-4 3.2-9.602 5.602-14.399 5.602zm0 0" fill="#ffc700" opacity="1" data-original="#000000"></path></g></svg>